<svg width="48" height="48" viewBox="0 0 48 48" fill="none" xmlns="http://www.w3.org/2000/svg">
<path d="M38.9639 25.2032C35.8239 17.0432 24.6439 16.6032 27.3439 4.74322C27.5439 3.86322 26.6039 3.18322 25.8439 3.64322C18.5839 7.92322 13.3639 16.5032 17.7439 27.7432C18.1039 28.6632 17.0239 29.5232 16.2439 28.9232C12.6239 26.1832 12.2439 22.2432 12.5639 19.4232C12.6839 18.3832 11.3239 17.8832 10.7439 18.7432C9.38391 20.8232 8.00391 24.1832 8.00391 29.2432C8.76391 40.4432 18.2239 43.8832 21.6239 44.3232C26.4839 44.9432 31.7439 44.0432 35.5239 40.5832C39.6839 36.7232 41.2039 30.5632 38.9639 25.2032ZM20.4039 35.2632C23.2839 34.5632 24.7639 32.4832 25.1639 30.6432C25.8239 27.7832 23.2439 24.9832 24.9839 20.4632C25.6439 24.2032 31.5239 26.5432 31.5239 30.6232C31.6839 35.6832 26.2039 40.0232 20.4039 35.2632Z" fill="url(#paint0_linear_231_354)" fill-opacity="0.85"/>
<defs>
<linearGradient id="paint0_linear_231_354" x1="31.2366" y1="3.49513" x2="-24.4233" y2="37.6042" gradientUnits="userSpaceOnUse">
<stop stop-color="#AD00FF" stop-opacity="0.54"/>
<stop offset="0.463542" stop-color="#DB00FF"/>
<stop offset="0.651042" stop-color="#A000FF"/>
<stop offset="1" stop-color="#3300FF"/>
</linearGradient>
</defs>
</svg>
