<svg width="46" height="46" viewBox="0 0 46 46" fill="none" xmlns="http://www.w3.org/2000/svg">
<path d="M30.1971 27.3221H28.6829L28.1462 26.8046C30.0246 24.6196 31.1554 21.7829 31.1554 18.6971C31.1554 11.8163 25.5779 6.23877 18.6971 6.23877C11.8162 6.23877 6.23874 11.8163 6.23874 18.6971C6.23874 25.5779 11.8162 31.1554 18.6971 31.1554C21.7829 31.1554 24.6196 30.0246 26.8046 28.1463L27.3221 28.6829V30.1971L36.9054 39.7613L39.7612 36.9054L30.1971 27.3221ZM18.6971 27.3221C13.9246 27.3221 10.0721 23.4696 10.0721 18.6971C10.0721 13.9246 13.9246 10.0721 18.6971 10.0721C23.4696 10.0721 27.3221 13.9246 27.3221 18.6971C27.3221 23.4696 23.4696 27.3221 18.6971 27.3221Z" fill="black"/>
</svg>
