<svg width="24" height="24" viewBox="0 0 24 24" fill="none" xmlns="http://www.w3.org/2000/svg">
<path d="M17.2626 15.2382H16.1965L15.8186 14.8738C17.1412 13.3353 17.9374 11.3379 17.9374 9.16509C17.9374 4.3201 14.0101 0.392822 9.16515 0.392822C4.32016 0.392822 0.392883 4.3201 0.392883 9.16509C0.392883 14.0101 4.32016 17.9374 9.16515 17.9374C11.338 17.9374 13.3353 17.1411 14.8739 15.8185L15.2383 16.1964V17.2626L21.9862 23.997L23.997 21.9861L17.2626 15.2382ZM9.16515 15.2382C5.8047 15.2382 3.09204 12.5255 3.09204 9.16509C3.09204 5.80464 5.8047 3.09198 9.16515 3.09198C12.5256 3.09198 15.2383 5.80464 15.2383 9.16509C15.2383 12.5255 12.5256 15.2382 9.16515 15.2382Z" fill="black" fill-opacity="0.44"/>
</svg>
